<mxfile host="app.diagrams.net" modified="2023-08-11T01:56:11.924Z" agent="Mozilla/5.0 (Macintosh; Intel Mac OS X 10_15_7) AppleWebKit/537.36 (KHTML, like Gecko) Chrome/115.0.0.0 Safari/537.36" version="21.6.8" etag="OCL9fLFFDCyRateMyXZv" type="github">
  <diagram name="Page-1" id="yT4P8Us_n6Z18nM-jOkr">
    <mxGraphModel>
      <root>
        <mxCell id="0" />
        <mxCell id="1" parent="0" />
      </root>
    </mxGraphModel>
  </diagram>
</mxfile>
